{
  "extensionsUsed": [
    "KHR_materials_transmission",
    "KHR_materials_clearcoat",
    "KHR_materials_ior",
    "KHR_materials_specular"
  ],
  "accessors": [
    {
      "bufferView": 0,
      "componentType": 5126,
      "count": 4,
      "type": "VEC3",
      "max": [
        -60.67879,
        70.76852,
        40.38578
      ],
      "min": [
        -188.283966,
        0.0,
        14.1182957
      ]
    },
    {
      "bufferView": 1,
      "componentType": 5125,
      "count": 6,
      "type": "SCALAR",
      "max": [
        3.0
      ],
      "min": [
        0.0
      ]
    },
    {
      "bufferView": 2,
      "componentType": 5126,
      "count": 4,
      "type": "VEC3",
      "max": [
        0.0,
        0.3479774,
        0.9375029
      ],
      "min": [
        0.0,
        0.3479774,
        0.9375029
      ]
    },
    {
      "bufferView": 3,
      "componentType": 5126,
      "count": 4,
      "type": "VEC2",
      "max": [
        0.998535156,
        0.424670041
      ],
      "min": [
        0.691419363,
        8.028158E-09
      ]
    },
    {
      "bufferView": 4,
      "componentType": 5126,
      "count": 4,
      "type": "VEC3",
      "max": [
        -60.67879,
        70.76852,
        40.38578
      ],
      "min": [
        -71.36758,
        0.0,
        -63.4933319
      ]
    },
    {
      "bufferView": 5,
      "componentType": 5125,
      "count": 6,
      "type": "SCALAR",
      "max": [
        3.0
      ],
      "min": [
        0.0
      ]
    },
    {
      "bufferView": 6,
      "componentType": 5126,
      "count": 4,
      "type": "VEC3",
      "max": [
        0.988785148,
        0.149344862,
        0.0
      ],
      "min": [
        0.988785148,
        0.149344862,
        0.0
      ]
    },
    {
      "bufferView": 7,
      "componentType": 5126,
      "count": 4,
      "type": "VEC2",
      "max": [
        0.344244838,
        0.847875237
      ],
      "min": [
        0.0,
        0.59557265
      ]
    },
    {
      "bufferView": 8,
      "componentType": 5126,
      "count": 4,
      "type": "VEC3",
      "max": [
        -60.67879,
        70.76852,
        -37.22585
      ],
      "min": [
        -188.283966,
        0.0,
        -63.4933319
      ]
    },
    {
      "bufferView": 9,
      "componentType": 5125,
      "count": 6,
      "type": "SCALAR",
      "max": [
        3.0
      ],
      "min": [
        0.0
      ]
    },
    {
      "bufferView": 10,
      "componentType": 5126,
      "count": 4,
      "type": "VEC3",
      "max": [
        0.0,
        0.3479774,
        -0.9375029
      ],
      "min": [
        0.0,
        0.3479774,
        -0.9375029
      ]
    },
    {
      "bufferView": 11,
      "componentType": 5126,
      "count": 4,
      "type": "VEC2",
      "max": [
        0.6542903,
        0.4232052
      ],
      "min": [
        0.345709682,
        8.028158E-09
      ]
    },
    {
      "bufferView": 12,
      "componentType": 5126,
      "count": 4,
      "type": "VEC3",
      "max": [
        -134.438766,
        70.76852,
        40.38578
      ],
      "min": [
        -188.283966,
        0.0,
        -63.4933319
      ]
    },
    {
      "bufferView": 13,
      "componentType": 5125,
      "count": 6,
      "type": "SCALAR",
      "max": [
        3.0
      ],
      "min": [
        0.0
      ]
    },
    {
      "bufferView": 14,
      "componentType": 5126,
      "count": 4,
      "type": "VEC3",
      "max": [
        -0.795830846,
        0.605519,
        0.0
      ],
      "min": [
        -0.795830846,
        0.605519,
        0.0
      ]
    },
    {
      "bufferView": 15,
      "componentType": 5126,
      "count": 4,
      "type": "VEC2",
      "max": [
        0.308580637,
        0.345709682
      ],
      "min": [
        -1.47771786E-08,
        0.0
      ]
    },
    {
      "bufferView": 16,
      "componentType": 5126,
      "count": 4,
      "type": "VEC3",
      "max": [
        -60.67879,
        0.0,
        40.38578
      ],
      "min": [
        -188.283966,
        0.0,
        -63.4933319
      ]
    },
    {
      "bufferView": 17,
      "componentType": 5125,
      "count": 6,
      "type": "SCALAR",
      "max": [
        3.0
      ],
      "min": [
        0.0
      ]
    },
    {
      "bufferView": 18,
      "componentType": 5126,
      "count": 4,
      "type": "VEC3",
      "max": [
        0.0,
        -1.0,
        0.0
      ],
      "min": [
        0.0,
        -1.0,
        0.0
      ]
    },
    {
      "bufferView": 19,
      "componentType": 5126,
      "count": 4,
      "type": "VEC2",
      "max": [
        0.6899545,
        0.847875237
      ],
      "min": [
        0.3457097,
        0.424670041
      ]
    },
    {
      "bufferView": 20,
      "componentType": 5126,
      "count": 4,
      "type": "VEC3",
      "max": [
        -71.36758,
        70.76852,
        14.1182957
      ],
      "min": [
        -134.438766,
        70.76852,
        -37.22585
      ]
    },
    {
      "bufferView": 21,
      "componentType": 5125,
      "count": 6,
      "type": "SCALAR",
      "max": [
        3.0
      ],
      "min": [
        0.0
      ]
    },
    {
      "bufferView": 22,
      "componentType": 5126,
      "count": 4,
      "type": "VEC3",
      "max": [
        0.0,
        1.0,
        0.0
      ],
      "min": [
        0.0,
        1.0,
        0.0
      ]
    },
    {
      "bufferView": 23,
      "componentType": 5126,
      "count": 4,
      "type": "VEC2",
      "max": [
        0.2099009,
        0.5941078
      ],
      "min": [
        0.0,
        0.424670041
      ]
    },
    {
      "bufferView": 24,
      "componentType": 5126,
      "count": 4,
      "type": "VEC3",
      "max": [
        -177.616119,
        136.296234,
        40.38578
      ],
      "min": [
        -305.2213,
        0.0,
        40.38578
      ]
    },
    {
      "bufferView": 25,
      "componentType": 5125,
      "count": 6,
      "type": "SCALAR",
      "max": [
        3.0
      ],
      "min": [
        0.0
      ]
    },
    {
      "bufferView": 26,
      "componentType": 5126,
      "count": 4,
      "type": "VEC3",
      "max": [
        0.0,
        0.0,
        1.0
      ],
      "min": [
        0.0,
        0.0,
        1.0
      ]
    },
    {
      "bufferView": 27,
      "componentType": 5126,
      "count": 4,
      "type": "VEC2",
      "max": [
        0.324468821,
        0.6740663
      ],
      "min": [
        0.0,
        0.3259337
      ]
    },
    {
      "bufferView": 28,
      "componentType": 5126,
      "count": 4,
      "type": "VEC3",
      "max": [
        -177.616119,
        136.296234,
        40.38578
      ],
      "min": [
        -177.616119,
        0.0,
        -63.4933319
      ]
    },
    {
      "bufferView": 29,
      "componentType": 5125,
      "count": 6,
      "type": "SCALAR",
      "max": [
        3.0
      ],
      "min": [
        0.0
      ]
    },
    {
      "bufferView": 30,
      "componentType": 5126,
      "count": 4,
      "type": "VEC3",
      "max": [
        1.0,
        0.0,
        0.0
      ],
      "min": [
        1.0,
        0.0,
        0.0
      ]
    },
    {
      "bufferView": 31,
      "componentType": 5126,
      "count": 4,
      "type": "VEC2",
      "max": [
        0.672601461,
        0.8551322
      ],
      "min": [
        0.3259337,
        0.5912654
      ]
    },
    {
      "bufferView": 32,
      "componentType": 5126,
      "count": 4,
      "type": "VEC3",
      "max": [
        -177.616119,
        136.296234,
        -63.4933319
      ],
      "min": [
        -305.2213,
        0.0,
        -63.4933319
      ]
    },
    {
      "bufferView": 33,
      "componentType": 5125,
      "count": 6,
      "type": "SCALAR",
      "max": [
        3.0
      ],
      "min": [
        0.0
      ]
    },
    {
      "bufferView": 34,
      "componentType": 5126,
      "count": 4,
      "type": "VEC3",
      "max": [
        0.0,
        0.0,
        -1.0
      ],
      "min": [
        0.0,
        0.0,
        -1.0
      ]
    },
    {
      "bufferView": 35,
      "componentType": 5126,
      "count": 4,
      "type": "VEC2",
      "max": [
        0.34813267,
        0.324468821
      ],
      "min": [
        -9.281007E-09,
        0.0
      ]
    },
    {
      "bufferView": 36,
      "componentType": 5126,
      "count": 4,
      "type": "VEC3",
      "max": [
        -305.2213,
        136.296234,
        40.38578
      ],
      "min": [
        -305.2213,
        0.0,
        -63.4933319
      ]
    },
    {
      "bufferView": 37,
      "componentType": 5125,
      "count": 6,
      "type": "SCALAR",
      "max": [
        3.0
      ],
      "min": [
        0.0
      ]
    },
    {
      "bufferView": 38,
      "componentType": 5126,
      "count": 4,
      "type": "VEC3",
      "max": [
        -1.0,
        0.0,
        0.0
      ],
      "min": [
        -1.0,
        0.0,
        0.0
      ]
    },
    {
      "bufferView": 39,
      "componentType": 5126,
      "count": 4,
      "type": "VEC2",
      "max": [
        0.672601461,
        0.589800537
      ],
      "min": [
        0.3259337,
        0.325933665
      ]
    },
    {
      "bufferView": 40,
      "componentType": 5126,
      "count": 4,
      "type": "VEC3",
      "max": [
        -177.616119,
        0.0,
        40.38578
      ],
      "min": [
        -305.2213,
        0.0,
        -63.4933319
      ]
    },
    {
      "bufferView": 41,
      "componentType": 5125,
      "count": 6,
      "type": "SCALAR",
      "max": [
        3.0
      ],
      "min": [
        0.0
      ]
    },
    {
      "bufferView": 42,
      "componentType": 5126,
      "count": 4,
      "type": "VEC3",
      "max": [
        0.0,
        -1.0,
        0.0
      ],
      "min": [
        0.0,
        -1.0,
        0.0
      ]
    },
    {
      "bufferView": 43,
      "componentType": 5126,
      "count": 4,
      "type": "VEC2",
      "max": [
        0.998535156,
        0.6936302
      ],
      "min": [
        0.6740663,
        0.428298563
      ]
    },
    {
      "bufferView": 44,
      "componentType": 5126,
      "count": 4,
      "type": "VEC3",
      "max": [
        -177.616119,
        136.296234,
        40.38578
      ],
      "min": [
        -305.2213,
        136.296234,
        -63.4933319
      ]
    },
    {
      "bufferView": 45,
      "componentType": 5125,
      "count": 6,
      "type": "SCALAR",
      "max": [
        3.0
      ],
      "min": [
        0.0
      ]
    },
    {
      "bufferView": 46,
      "componentType": 5126,
      "count": 4,
      "type": "VEC3",
      "max": [
        0.0,
        1.0,
        0.0
      ],
      "min": [
        0.0,
        1.0,
        0.0
      ]
    },
    {
      "bufferView": 47,
      "componentType": 5126,
      "count": 4,
      "type": "VEC2",
      "max": [
        0.998535156,
        0.265331715
      ],
      "min": [
        0.6740663,
        -1.15716965E-08
      ]
    }
  ],
  "asset": {
    "version": "2.0"
  },
  "buffers": [
    {
      "uri": "data:application/octet-stream;base64,",
      "byteLength": 48
    },
    {
      "uri": "data:application/octet-stream;base64,",
      "byteLength": 24
    },
    {
      "uri": "data:application/octet-stream;base64,",
      "byteLength": 48
    },
    {
      "uri": "data:application/octet-stream;base64,",
      "byteLength": 32
    },
    {
      "uri": "data:application/octet-stream;base64,",
      "byteLength": 48
    },
    {
      "uri": "data:application/octet-stream;base64,",
      "byteLength": 24
    },
    {
      "uri": "data:application/octet-stream;base64,",
      "byteLength": 48
    },
    {
      "uri": "data:application/octet-stream;base64,",
      "byteLength": 32
    },
    {
      "uri": "data:application/octet-stream;base64,",
      "byteLength": 48
    },
    {
      "uri": "data:application/octet-stream;base64,",
      "byteLength": 24
    },
    {
      "uri": "data:application/octet-stream;base64,",
      "byteLength": 48
    },
    {
      "uri": "data:application/octet-stream;base64,",
      "byteLength": 32
    },
    {
      "uri": "data:application/octet-stream;base64,",
      "byteLength": 48
    },
    {
      "uri": "data:application/octet-stream;base64,",
      "byteLength": 24
    },
    {
      "uri": "data:application/octet-stream;base64,",
      "byteLength": 48
    },
    {
      "uri": "data:application/octet-stream;base64,",
      "byteLength": 32
    },
    {
      "uri": "data:application/octet-stream;base64,",
      "byteLength": 48
    },
    {
      "uri": "data:application/octet-stream;base64,",
      "byteLength": 24
    },
    {
      "uri": "data:application/octet-stream;base64,",
      "byteLength": 48
    },
    {
      "uri": "data:application/octet-stream;base64,",
      "byteLength": 32
    },
    {
      "uri": "data:application/octet-stream;base64,",
      "byteLength": 48
    },
    {
      "uri": "data:application/octet-stream;base64,",
      "byteLength": 24
    },
    {
      "uri": "data:application/octet-stream;base64,",
      "byteLength": 48
    },
    {
      "uri": "data:application/octet-stream;base64,",
      "byteLength": 32
    },
    {
      "uri": "data:application/octet-stream;base64,",
      "byteLength": 48
    },
    {
      "uri": "data:application/octet-stream;base64,",
      "byteLength": 24
    },
    {
      "uri": "data:application/octet-stream;base64,",
      "byteLength": 48
    },
    {
      "uri": "data:application/octet-stream;base64,",
      "byteLength": 32
    },
    {
      "uri": "data:application/octet-stream;base64,",
      "byteLength": 48
    },
    {
      "uri": "data:application/octet-stream;base64,",
      "byteLength": 24
    },
    {
      "uri": "data:application/octet-stream;base64,",
      "byteLength": 48
    },
    {
      "uri": "data:application/octet-stream;base64,",
      "byteLength": 32
    },
    {
      "uri": "data:application/octet-stream;base64,",
      "byteLength": 48
    },
    {
      "uri": "data:application/octet-stream;base64,",
      "byteLength": 24
    },
    {
      "uri": "data:application/octet-stream;base64,",
      "byteLength": 48
    },
    {
      "uri": "data:application/octet-stream;base64,",
      "byteLength": 32
    },
    {
      "uri": "data:application/octet-stream;base64,",
      "byteLength": 48
    },
    {
      "uri": "data:application/octet-stream;base64,",
      "byteLength": 24
    },
    {
      "uri": "data:application/octet-stream;base64,",
      "byteLength": 48
    },
    {
      "uri": "data:application/octet-stream;base64,",
      "byteLength": 32
    },
    {
      "uri": "data:application/octet-stream;base64,",
      "byteLength": 48
    },
    {
      "uri": "data:application/octet-stream;base64,",
      "byteLength": 24
    },
    {
      "uri": "data:application/octet-stream;base64,",
      "byteLength": 48
    },
    {
      "uri": "data:application/octet-stream;base64,",
      "byteLength": 32
    },
    {
      "uri": "data:application/octet-stream;base64,",
      "byteLength": 48
    },
    {
      "uri": "data:application/octet-stream;base64,",
      "byteLength": 24
    },
    {
      "uri": "data:application/octet-stream;base64,",
      "byteLength": 48
    },
    {
      "uri": "data:application/octet-stream;base64,",
      "byteLength": 32
    }
  ],
  "bufferViews": [
    {
      "buffer": 0,
      "byteLength": 48,
      "target": 34962
    },
    {
      "buffer": 1,
      "byteLength": 24,
      "target": 34963
    },
    {
      "buffer": 2,
      "byteLength": 48,
      "target": 34962
    },
    {
      "buffer": 3,
      "byteLength": 32,
      "target": 34962
    },
    {
      "buffer": 4,
      "byteLength": 48,
      "target": 34962
    },
    {
      "buffer": 5,
      "byteLength": 24,
      "target": 34963
    },
    {
      "buffer": 6,
      "byteLength": 48,
      "target": 34962
    },
    {
      "buffer": 7,
      "byteLength": 32,
      "target": 34962
    },
    {
      "buffer": 8,
      "byteLength": 48,
      "target": 34962
    },
    {
      "buffer": 9,
      "byteLength": 24,
      "target": 34963
    },
    {
      "buffer": 10,
      "byteLength": 48,
      "target": 34962
    },
    {
      "buffer": 11,
      "byteLength": 32,
      "target": 34962
    },
    {
      "buffer": 12,
      "byteLength": 48,
      "target": 34962
    },
    {
      "buffer": 13,
      "byteLength": 24,
      "target": 34963
    },
    {
      "buffer": 14,
      "byteLength": 48,
      "target": 34962
    },
    {
      "buffer": 15,
      "byteLength": 32,
      "target": 34962
    },
    {
      "buffer": 16,
      "byteLength": 48,
      "target": 34962
    },
    {
      "buffer": 17,
      "byteLength": 24,
      "target": 34963
    },
    {
      "buffer": 18,
      "byteLength": 48,
      "target": 34962
    },
    {
      "buffer": 19,
      "byteLength": 32,
      "target": 34962
    },
    {
      "buffer": 20,
      "byteLength": 48,
      "target": 34962
    },
    {
      "buffer": 21,
      "byteLength": 24,
      "target": 34963
    },
    {
      "buffer": 22,
      "byteLength": 48,
      "target": 34962
    },
    {
      "buffer": 23,
      "byteLength": 32,
      "target": 34962
    },
    {
      "buffer": 24,
      "byteLength": 48,
      "target": 34962
    },
    {
      "buffer": 25,
      "byteLength": 24,
      "target": 34963
    },
    {
      "buffer": 26,
      "byteLength": 48,
      "target": 34962
    },
    {
      "buffer": 27,
      "byteLength": 32,
      "target": 34962
    },
    {
      "buffer": 28,
      "byteLength": 48,
      "target": 34962
    },
    {
      "buffer": 29,
      "byteLength": 24,
      "target": 34963
    },
    {
      "buffer": 30,
      "byteLength": 48,
      "target": 34962
    },
    {
      "buffer": 31,
      "byteLength": 32,
      "target": 34962
    },
    {
      "buffer": 32,
      "byteLength": 48,
      "target": 34962
    },
    {
      "buffer": 33,
      "byteLength": 24,
      "target": 34963
    },
    {
      "buffer": 34,
      "byteLength": 48,
      "target": 34962
    },
    {
      "buffer": 35,
      "byteLength": 32,
      "target": 34962
    },
    {
      "buffer": 36,
      "byteLength": 48,
      "target": 34962
    },
    {
      "buffer": 37,
      "byteLength": 24,
      "target": 34963
    },
    {
      "buffer": 38,
      "byteLength": 48,
      "target": 34962
    },
    {
      "buffer": 39,
      "byteLength": 32,
      "target": 34962
    },
    {
      "buffer": 40,
      "byteLength": 48,
      "target": 34962
    },
    {
      "buffer": 41,
      "byteLength": 24,
      "target": 34963
    },
    {
      "buffer": 42,
      "byteLength": 48,
      "target": 34962
    },
    {
      "buffer": 43,
      "byteLength": 32,
      "target": 34962
    },
    {
      "buffer": 44,
      "byteLength": 48,
      "target": 34962
    },
    {
      "buffer": 45,
      "byteLength": 24,
      "target": 34963
    },
    {
      "buffer": 46,
      "byteLength": 48,
      "target": 34962
    },
    {
      "buffer": 47,
      "byteLength": 32,
      "target": 34962
    }
  ],
  "materials": [
    {
      "pbrMetallicRoughness": {
        "baseColorFactor": [
          0.0,
          0.0,
          0.0,
          1.0
        ]
      }
    },
    {
      "pbrMetallicRoughness": {
        "baseColorFactor": [
          0.0,
          0.0,
          0.0,
          1.0
        ]
      }
    }
  ],
  "meshes": [
    {
      "primitives": [
        {
          "attributes": {
            "POSITION": 0,
            "NORMAL": 2,
            "TEXCOORD_0": 3
          },
          "indices": 1,
          "material": 0
        },
        {
          "attributes": {
            "POSITION": 4,
            "NORMAL": 6,
            "TEXCOORD_0": 7
          },
          "indices": 5,
          "material": 0
        },
        {
          "attributes": {
            "POSITION": 8,
            "NORMAL": 10,
            "TEXCOORD_0": 11
          },
          "indices": 9,
          "material": 0
        },
        {
          "attributes": {
            "POSITION": 12,
            "NORMAL": 14,
            "TEXCOORD_0": 15
          },
          "indices": 13,
          "material": 0
        },
        {
          "attributes": {
            "POSITION": 16,
            "NORMAL": 18,
            "TEXCOORD_0": 19
          },
          "indices": 17,
          "material": 0
        },
        {
          "attributes": {
            "POSITION": 20,
            "NORMAL": 22,
            "TEXCOORD_0": 23
          },
          "indices": 21,
          "material": 0
        }
      ]
    },
    {
      "primitives": [
        {
          "attributes": {
            "POSITION": 24,
            "NORMAL": 26,
            "TEXCOORD_0": 27
          },
          "indices": 25,
          "material": 1
        },
        {
          "attributes": {
            "POSITION": 28,
            "NORMAL": 30,
            "TEXCOORD_0": 31
          },
          "indices": 29,
          "material": 1
        },
        {
          "attributes": {
            "POSITION": 32,
            "NORMAL": 34,
            "TEXCOORD_0": 35
          },
          "indices": 33,
          "material": 1
        },
        {
          "attributes": {
            "POSITION": 36,
            "NORMAL": 38,
            "TEXCOORD_0": 39
          },
          "indices": 37,
          "material": 1
        },
        {
          "attributes": {
            "POSITION": 40,
            "NORMAL": 42,
            "TEXCOORD_0": 43
          },
          "indices": 41,
          "material": 1
        },
        {
          "attributes": {
            "POSITION": 44,
            "NORMAL": 46,
            "TEXCOORD_0": 47
          },
          "indices": 45,
          "material": 1
        }
      ]
    }
  ],
  "nodes": [
    {
      "mesh": 0
    },
    {
      "mesh": 1
    }
  ],
  "samplers": [
    {
      "magFilter": 9729,
      "minFilter": 9729
    }
  ],
  "scene": 0,
  "scenes": [
    {
      "nodes": [
        0,
        1
      ],
      "extensions": {}
    }
  ],
  "extensions": {}
}